{"title":"Shameless.US.S06E02.1080p.HDTV.X264-DIMENSION","uid":13246094,"size":3670213223,"categoryP":"video","categoryS":"hd___tv_shows","magnet":"?xt=urn:btih:2862d07f3a73371dbe1653de512b35f801dcc52e&amp;dn=Shameless.US.S06E02.1080p.HDTV.X264-DIMENSION&amp;tr=udp%3A%2F%2Ftracker.leechers-paradise.org%3A6969&amp;tr=udp%3A%2F%2Fzer0day.ch%3A1337&amp;tr=udp%3A%2F%2Fopen.demonii.com%3A1337&amp;tr=udp%3A%2F%2Ftracker.coppersurfer.tk%3A6969&amp;tr=udp%3A%2F%2Fexodus.desync.com%3A6969","seeders":0,"leechers":1,"uploader":"Maxis42","files":1,"time":1453107365,"description":"Shameless.US.S06E02.1080p.HDTV.X264-DIMENSION\r\nAired 17.01.2016\r\n\r\n&quot;#AbortionRules&quot;\r\n\r\nDebbie’s determined to keep her baby while \r\nFiona’s determined to persuade her to abort. \r\nDebbie carries a bag of flour around all day \r\nto prove Fiona wrong about her ability to \r\nraise a child while going to school. She \r\nquickly realizes people are not as \r\naccommodating to mothers and babies as she \r\n\r\nFormat                         : Matroska\r\nFormat version                 : Version 2\r\nFile size                      : 3.42 GiB\r\nDuration                       : 54mn 48s\r\nOverall bit rate               : 8 927 Kbps\r\nEncoded date                   : UTC 2016-01-15 21:58:56\r\nWriting application            : mkvmerge v3.1.0 ('Happy up here') built on Jan 19 2010 12:09:24\r\nWriting library                : libebml v0.7.9 + libmatroska v0.8.1\r\n\r\nVideo\r\nID                             : 1\r\nFormat                         : AVC\r\nFormat/Info                    : Advanced Video Codec\r\nFormat profile                 :   \r\nFormat settings, CABAC         : Yes\r\nFormat settings, ReFrames      : 4 frames\r\nCodec ID                       : V_MPEG4/ISO/AVC\r\nDuration                       : 54mn 48s\r\nBit rate                       : 8 110 Kbps\r\nWidth                          : 1 920 pixels\r\nHeight                         : 1 080 pixels\r\nDisplay aspect ratio           : 16:9\r\nFrame rate mode                : Constant\r\nFrame rate                     : 23.976 (24000/1001) fps\r\nColor space                    : YUV\r\nChroma subsampling             : 4:2:0\r\nBit depth                      : 8 bits\r\nScan type                      : Progressive\r\nBits/(Pixel*Frame)             : 0.163\r\nStream size                    : 3.11 GiB (91%)\r\nWriting library                : x264 core 148 r2638 7599210\r\nEncoding settings              : cabac=1 / ref=4 / deblock=1:-2:-2 / analyse=0x3:0x113 / me=umh / subme=9 / psy=1 / psy_rd=1.00:0.00 / mixed_ref=1 / me_range=24 / chroma_me=1 / trellis=1 / 8x8dct=1 / cqm=0 / deadzone=21,11 / fast_pskip=0 / chroma_qp_offset=-2 / threads=12 / lookahead_threads=1 / sliced_threads=0 / nr=0 / decimate=1 / interlaced=0 / bluray_compat=0 / constrained_intra=0 / bframes=5 / b_pyramid=2 / b_adapt=2 / b_bias=0 / direct=3 / weightb=1 / open_gop=0 / weightp=2 / keyint=250 / keyint_min=23 / scenecut=40 / intra_refresh=0 / rc_lookahead=50 / rc=crf / mbtree=1 / crf=17.0 / qcomp=0.60 / qpmin=0 / qpmax=69 / qpstep=4 / ip_ratio=1.40 / aq=1:1.00\r\nLanguage                       : English\r\nDefault                        : No\r\nForced                         : No\r\n\r\nAudio\r\nID                             : 2\r\nFormat                         : AC-3\r\nFormat/Info                    : Audio Coding 3\r\nMode extension                 : CM (complete main)\r\nFormat settings, Endianness    : Big\r\nCodec ID                       : A_AC3\r\nDuration                       : 54mn 48s\r\nBit rate mode                  : Constant\r\nBit rate                       : 640 Kbps\r\nChannel(s)                     : 6 channels\r\nChannel positions              : Front: L C R, Side: L R, LFE\r\nSampling rate                  : 48.0 KHz\r\nFrame rate                     : 31.250 fps (1536 spf)\r\nCompression mode               : Lossy\r\nDelay relative to video        : 8ms\r\nStream size                    : 251 MiB (7%)\r\nDefault                        : Yes\r\nForced                         : No","torrent":{"xt":"urn:btih:2862d07f3a73371dbe1653de512b35f801dcc52e","amp;dn":"Shameless.US.S06E02.1080p.HDTV.X264-DIMENSION","amp;tr":["udp%3A%2F%2Ftracker.leechers-paradise.org%3A6969","udp%3A%2F%2Fzer0day.ch%3A1337","udp%3A%2F%2Fopen.demonii.com%3A1337","udp%3A%2F%2Ftracker.coppersurfer.tk%3A6969","udp%3A%2F%2Fexodus.desync.com%3A6969"],"infoHash":"2862d07f3a73371dbe1653de512b35f801dcc52e","infoHashBuffer":{"type":"Buffer","data":[40,98,208,127,58,115,55,29,190,22,83,222,81,43,53,248,1,220,197,46]},"announce":[],"urlList":[]}}